<?xml version="1.0" encoding="UTF-8"?>
<svg xmlns="http://www.w3.org/2000/svg" width="64" height="64" viewBox="0 0 64 64" fill="none">
  <g clip-path="url(#clip0_37_108)">
    <path d="M11.5786 13.9753C12.1576 13.3991 12.7319 12.8182 13.3455 12.278C14.1074 11.6078 14.904 10.9818 15.7342 10.3975C16.4428 9.89777 17.1792 9.44214 17.9365 9.01897C18.6659 8.61087 19.4116 8.23408 20.1746 7.8909C21.0187 7.50947 21.8837 7.17905 22.7613 6.89269C23.3773 6.69211 24.0072 6.51937 24.6394 6.36633C25.2137 6.22721 25.7938 6.11359 26.3716 5.99649C26.8451 5.90142 27.328 5.85505 27.8073 5.79013C29.162 5.60463 30.5237 5.58376 31.8876 5.6081C33.0444 5.62897 34.1906 5.75766 35.3346 5.93041C35.9494 6.02316 36.5585 6.15185 37.1652 6.27938C37.743 6.40111 38.3092 6.57966 38.8765 6.74545C39.5192 6.93326 40.149 7.15818 40.7731 7.40165C41.6346 7.73671 42.4798 8.1135 43.3019 8.53783C43.9932 8.89492 44.6728 9.27403 45.3282 9.69372C46.0322 10.1447 46.7188 10.6212 47.3822 11.1313C48.1476 11.7203 48.8747 12.3533 49.5787 13.013C49.9087 13.3225 50.2202 13.6518 50.5397 13.9718C50.5536 14.1074 50.6555 14.1654 50.7597 14.2211L50.7644 14.2257C50.7713 14.2582 50.7922 14.2756 50.8246 14.2802C50.8489 14.315 50.8732 14.3498 50.8975 14.3857C50.9392 14.5364 51.048 14.6257 51.1789 14.6941L51.1812 14.6964C51.187 14.7671 51.2229 14.81 51.2958 14.817C51.3028 14.8309 51.312 14.8436 51.3225 14.8541C51.319 14.9283 51.3468 14.977 51.4267 14.9828C51.4382 15.0639 51.4765 15.1196 51.561 15.1346C51.5714 15.1474 51.583 15.1578 51.598 15.1659C51.605 15.2506 51.6548 15.3004 51.7289 15.3329C51.7254 15.4117 51.7659 15.45 51.8423 15.4558C51.8435 15.4883 51.8574 15.5126 51.8863 15.5277C51.9141 15.5601 51.9431 15.5938 51.9709 15.6262C51.9801 15.7595 52.0704 15.8314 52.177 15.8894C52.1828 15.9033 52.1909 15.9172 52.199 15.9288C52.2441 16.0552 52.2939 16.1769 52.434 16.2279C52.4317 16.2604 52.4421 16.2847 52.4734 16.2975C52.4734 16.2975 52.478 16.3068 52.4792 16.3068C52.566 16.5398 52.7339 16.7149 52.9029 16.8876C52.9076 16.9038 52.9145 16.9178 52.9249 16.9317C52.9203 17.0766 53.0349 17.1276 53.1299 17.1937C53.1357 17.2088 53.1426 17.2215 53.153 17.2331C53.1449 17.3096 53.1739 17.3572 53.2549 17.3676C53.2607 17.3815 53.2688 17.3954 53.2781 17.4082C53.2712 17.5287 53.3557 17.5937 53.4356 17.6597C53.4414 17.6748 53.4483 17.6899 53.4564 17.7038C53.4437 17.785 53.4888 17.8197 53.5606 17.8325C53.886 18.3948 54.2055 18.9594 54.5379 19.5182C54.9315 20.1814 55.2152 20.8979 55.5487 21.59C55.6378 21.7767 55.595 21.8462 55.3889 21.8474C54.5193 21.852 53.6498 21.8474 52.7802 21.8509C52.6112 21.8509 52.5371 21.7581 52.4722 21.6248C52.1932 21.0602 51.9107 20.4956 51.5772 19.9611C51.0249 19.0765 50.4598 18.2012 49.7918 17.3954C49.39 16.9108 48.9975 16.4169 48.5656 15.959C47.7273 15.0686 46.8311 14.2419 45.8689 13.4849C45.2031 12.9608 44.5154 12.4704 43.7998 12.0206C42.9244 11.471 42.019 10.9748 41.0753 10.5493C40.3042 10.2027 39.5238 9.88038 38.7179 9.61836C38.0151 9.38997 37.3099 9.18012 36.5886 9.01433C36.0988 8.90187 35.6056 8.81492 35.1123 8.71753C34.149 8.52856 33.1775 8.46827 32.2014 8.40566C31.6283 8.36856 31.0563 8.33842 30.4855 8.3674C29.4411 8.42073 28.3944 8.47407 27.3592 8.63638C26.8335 8.71869 26.3067 8.8068 25.7915 8.93665C24.9902 9.13838 24.1913 9.34823 23.4063 9.61257C22.5078 9.91516 21.6336 10.2699 20.7791 10.6734C19.334 11.3551 17.9782 12.184 16.6987 13.1417C15.6022 13.9625 14.5879 14.8703 13.6477 15.8662C13.1001 16.4471 12.5964 17.0627 12.0985 17.6864C11.5138 18.4215 11.0136 19.2087 10.5215 20.0052C10.21 20.5095 9.93446 21.03 9.67857 21.5622C9.58247 21.7616 9.47016 21.859 9.23048 21.8543C8.43039 21.8381 7.63031 21.8486 6.82906 21.8462C6.7318 21.8462 6.63107 21.8659 6.52223 21.8057C6.51181 21.692 6.5697 21.5831 6.61486 21.481C6.84411 20.9674 7.07453 20.455 7.34779 19.9623C7.386 19.8939 7.40915 19.8173 7.43926 19.7455C7.60483 19.6017 7.70209 19.422 7.7322 19.2052C7.83178 19.1832 7.84799 19.109 7.84451 19.0232V19.022C7.94409 18.9455 8.00546 18.8469 8.01356 18.7183C8.11545 18.7009 8.13745 18.6301 8.13282 18.5409C8.1525 18.5015 8.17335 18.462 8.19303 18.4226C8.25903 18.4041 8.29261 18.3623 8.28103 18.2916C8.29608 18.2615 8.31113 18.2302 8.32619 18.2C8.47092 18.0899 8.55776 17.9415 8.60523 17.7676C8.61334 17.7537 8.61797 17.7386 8.62028 17.7224C8.70828 17.6968 8.74302 17.6354 8.74186 17.5473L8.74417 17.5438C8.83102 17.5171 8.85417 17.4487 8.86112 17.3687L8.86344 17.3676C8.94217 17.3595 8.97112 17.3119 8.96764 17.2377C9.07648 17.1717 9.15059 17.0824 9.1529 16.9467C9.22816 16.9363 9.26637 16.8957 9.26059 16.818C9.26985 16.8053 9.27564 16.7925 9.28027 16.7786C9.34742 16.7578 9.38216 16.7137 9.381 16.6418C9.39374 16.6314 9.403 16.6186 9.40995 16.6047C9.43774 16.5885 9.45163 16.5653 9.44932 16.5317C9.55237 16.5085 9.60447 16.4436 9.60679 16.3381L9.61026 16.3346C9.72257 16.2639 9.80131 16.1676 9.83836 16.039C9.84994 16.0274 9.85804 16.0134 9.86268 15.9972C9.8951 15.9845 9.91131 15.9613 9.90899 15.9253C9.97036 15.8824 10.0155 15.8268 10.0352 15.7526C10.1093 15.7445 10.1521 15.7085 10.1475 15.6285C10.1568 15.6169 10.1649 15.6042 10.1707 15.5903C10.2367 15.5706 10.276 15.53 10.2749 15.4581C10.371 15.4326 10.4323 15.3758 10.4451 15.2738C10.5018 15.2622 10.5169 15.2193 10.5227 15.1706C10.5412 15.1509 10.5597 15.13 10.5771 15.1103C10.65 15.0987 10.6836 15.0535 10.6871 14.9816C10.7114 14.948 10.7369 14.9132 10.7612 14.8796C10.7913 14.8738 10.811 14.8576 10.8179 14.8274L10.8283 14.8181C10.9314 14.7613 11.0263 14.6964 11.0391 14.5631C11.1143 14.5573 11.1549 14.519 11.1525 14.4402L11.1537 14.4379C11.222 14.4286 11.2764 14.4066 11.2718 14.3219C11.2984 14.2883 11.3239 14.2547 11.3505 14.2211C11.4571 14.1654 11.5532 14.1016 11.5775 13.9706L11.5786 13.9753Z" fill="white"></path>
    <path d="M54.5055 44.6186C54.4951 44.6325 54.4882 44.6476 54.4847 44.6638C54.4731 44.6893 54.4615 44.7148 54.45 44.7403C54.3492 44.7624 54.3353 44.8377 54.3377 44.9235C54.2589 45.0116 54.1686 45.0916 54.1721 45.2249C54.1628 45.24 54.157 45.2551 54.1536 45.2725C54.0308 45.3119 53.9996 45.4093 53.9984 45.5241C53.9891 45.5391 53.9833 45.5554 53.9787 45.5727C53.9451 45.5809 53.9255 45.6006 53.9255 45.6365C53.9116 45.6678 53.8988 45.6991 53.8849 45.7304C53.8722 45.7525 53.8606 45.7756 53.8479 45.7977L53.8456 45.8C53.7275 45.8429 53.702 45.9437 53.6858 46.0516C53.6209 46.0701 53.585 46.1095 53.5978 46.1803C53.5885 46.1976 53.5781 46.215 53.5688 46.2324C53.2886 46.5049 53.1149 46.8504 52.9158 47.1796C52.8116 47.248 52.7317 47.3327 52.7271 47.4672C52.492 47.6608 52.3102 47.895 52.1898 48.1767L52.2002 48.1883L52.1898 48.1779C51.9907 48.3216 51.8598 48.521 51.7406 48.7297C51.7301 48.7425 51.7232 48.7552 51.7186 48.7714C51.6329 48.8097 51.5553 48.8538 51.5599 48.9662C51.5402 48.9906 51.5206 49.0149 51.5009 49.0381C51.4082 49.0439 51.3805 49.11 51.3608 49.1842L51.3585 49.1865C51.2519 49.241 51.1547 49.3048 51.1431 49.4404C51.0794 49.4798 51.0308 49.532 51.0099 49.6062C50.9787 49.6097 50.9544 49.6236 50.9451 49.656L50.9393 49.6584C50.8386 49.7187 50.7344 49.7766 50.7251 49.9134L50.7239 49.9146C50.6267 49.9157 50.5943 49.9795 50.5838 50.063L50.5769 50.0699C50.4982 50.0862 50.4333 50.1175 50.4368 50.2137L50.4322 50.2183C50.3592 50.2195 50.3106 50.2462 50.3175 50.3296C50.3071 50.3412 50.299 50.354 50.2921 50.3679C50.2226 50.3807 50.1832 50.4201 50.1763 50.4908C50.1566 50.5105 50.1381 50.5302 50.1184 50.5499C50.0478 50.558 50.0084 50.5986 50.0014 50.6693L50.0003 50.6705C49.8938 50.696 49.8278 50.7679 49.7768 50.8595L49.7757 50.8618C49.705 50.8687 49.6657 50.9082 49.6599 50.9789C49.5985 51.038 49.5383 51.0971 49.4769 51.1551C49.228 51.2989 49.0358 51.5041 48.8667 51.7313C48.8042 51.7661 48.7498 51.8113 48.7081 51.8704C48.5958 51.8704 48.5668 51.9632 48.524 52.0397C48.4545 52.0455 48.414 52.0838 48.4013 52.1522H48.4001C48.2762 52.1533 48.2044 52.2206 48.1674 52.333C48.0956 52.3342 48.0562 52.3748 48.0377 52.4409C48.0238 52.4466 48.0111 52.4548 47.9995 52.464C47.9196 52.4582 47.8837 52.5023 47.8768 52.5765C47.8061 52.5765 47.7575 52.6078 47.7424 52.6797C47.7089 52.7052 47.6753 52.7307 47.6417 52.7562C47.5375 52.7597 47.4854 52.8316 47.4437 52.9139C47.4298 52.9197 47.4171 52.9278 47.4055 52.9371C47.2758 52.9776 47.1589 53.0321 47.1102 53.1736H47.1091C47.0755 53.1701 47.0512 53.1852 47.0385 53.2165H47.0361C46.9864 53.2211 46.9539 53.2466 46.9412 53.2965L46.9354 53.2999C46.6795 53.402 46.4572 53.5527 46.2789 53.7649C46.2546 53.7788 46.2303 53.7938 46.2059 53.8077C46.1284 53.8217 46.0543 53.8414 46.0276 53.9306C46.0126 53.9353 45.9987 53.9422 45.986 53.9515C45.8308 54.0002 45.693 54.0744 45.605 54.2182C45.5911 54.224 45.5784 54.2309 45.5668 54.2414C45.4915 54.2344 45.4429 54.2622 45.4348 54.3422L45.4487 54.3503L45.4348 54.3434C45.3862 54.3434 45.3433 54.3561 45.3144 54.4002C45.2982 54.4048 45.2843 54.4118 45.2727 54.4234C44.9497 54.5289 44.6787 54.7179 44.4321 54.9463C44.3916 54.9636 44.351 54.981 44.3117 54.9996C44.1554 55.0471 43.9875 55.0784 43.8995 55.243C43.7026 55.3068 43.4989 55.3578 43.3587 55.5306L43.3564 55.5317C43.1897 55.5932 42.9963 55.6025 42.891 55.7775C42.8655 55.7868 42.84 55.7972 42.8157 55.8065C42.7983 55.81 42.7821 55.8169 42.7671 55.8274C42.3653 55.9282 42.0203 56.1694 41.6301 56.2992C41.6092 56.3062 41.6011 56.3479 41.5861 56.3723C41.5513 56.3815 41.5166 56.3908 41.4818 56.4001C41.4309 56.3873 41.3857 56.4036 41.3406 56.4233C40.8358 56.6355 40.3275 56.8325 39.8064 57.0053C39.6223 57.0667 39.3988 57.0749 39.2599 57.2488C39.1904 57.265 39.121 57.2812 39.0526 57.2986C38.9287 57.2627 38.8303 57.3056 38.7458 57.3948C38.7099 57.4006 38.674 57.4064 38.637 57.4122C38.5548 57.3856 38.483 57.4285 38.4089 57.4482C37.5115 57.6882 36.6153 57.927 35.6925 58.0568C35.5825 58.0719 35.4575 58.0847 35.3648 58.1693C35.2896 58.1786 35.2131 58.1878 35.1379 58.196C34.9086 58.1716 34.6875 58.196 34.4756 58.2887C34.4385 58.2922 34.4026 58.2968 34.3656 58.3003C33.9268 58.2806 33.4926 58.3362 33.0595 58.3849C32.9009 58.4023 32.726 58.3606 32.5778 58.4603C32.344 58.4696 32.1101 58.4789 31.8762 58.487C31.5149 58.422 31.1502 58.48 30.7878 58.4638C30.6731 58.4591 30.5516 58.4278 30.4416 58.4939C30.1452 58.4835 29.8487 58.4719 29.5523 58.4615C29.4053 58.3606 29.2304 58.4 29.0707 58.3826C28.6561 58.3374 28.2416 58.2806 27.8225 58.2991C27.7461 58.2934 27.6708 58.2887 27.5944 58.2829C27.4022 58.1902 27.2019 58.1519 26.9888 58.1925C26.9332 58.1867 26.8777 58.1797 26.8209 58.1739C26.5592 58.036 26.2744 58.0232 25.9884 58.0105C25.9108 58.0023 25.8333 57.9942 25.7545 57.985C25.6712 57.9038 25.5612 57.8934 25.4558 57.8748C25.3307 57.8516 25.208 57.8134 25.0853 57.7879C24.7715 57.7206 24.4658 57.6128 24.1416 57.5931C24.1057 57.5861 24.0698 57.5792 24.0339 57.5722C23.917 57.4737 23.7699 57.4505 23.631 57.4122C23.0775 57.2592 22.5264 57.0957 21.9926 56.8801C21.9035 56.8441 21.8143 56.7978 21.7112 56.8198C21.6742 56.8105 21.6383 56.8001 21.6013 56.7908C21.2852 56.6042 20.9482 56.4662 20.5904 56.3816C20.5754 56.3723 20.5592 56.3676 20.543 56.3665C20.5221 56.2865 20.4538 56.2714 20.3901 56.2436C20.0381 56.0882 19.685 55.9352 19.3376 55.7706C19.1257 55.6709 18.9324 55.5306 18.6973 55.4842C18.6834 55.4749 18.6684 55.4703 18.6522 55.4691C18.4843 55.2941 18.2747 55.1944 18.0466 55.1248C18.035 55.1155 18.0211 55.1086 18.0072 55.1039C17.9794 55.0436 17.9354 55.0065 17.866 55.0123C17.8347 55.0007 17.8034 54.988 17.7722 54.9764C17.756 54.9486 17.7317 54.9347 17.6992 54.9381C17.5175 54.741 17.2975 54.6054 17.0393 54.5312C17.0173 54.435 16.9489 54.4095 16.8609 54.4141C16.3503 54.1173 15.8721 53.7695 15.3916 53.4286C14.9424 53.1098 14.5105 52.7666 14.0844 52.4165C13.4232 51.8716 12.798 51.2908 12.1843 50.6925C11.4491 49.976 10.7833 49.1993 10.1337 48.4074C9.77131 47.9657 9.44479 47.4961 9.11364 47.0301C8.6285 46.346 8.1804 45.6388 7.77862 44.9026C7.35947 44.134 6.9438 43.3618 6.6057 42.5526C6.57212 42.4714 6.54781 42.3868 6.52002 42.3056C6.5837 42.2175 6.67054 42.2477 6.74349 42.2477C7.58294 42.2454 8.42355 42.2535 9.26301 42.2419C9.47027 42.2396 9.58026 42.3056 9.67058 42.4923C10.2935 43.7711 11.0427 44.9745 11.8925 46.113C12.8385 47.3802 13.9026 48.5431 15.0767 49.6016C15.8953 50.3401 16.7648 51.0195 17.6807 51.6305C18.4495 52.1429 19.2438 52.6182 20.0694 53.0402C20.7803 53.4043 21.5051 53.737 22.2439 54.035C22.7174 54.2263 23.2037 54.3932 23.6924 54.5486C24.284 54.7376 24.8803 54.9092 25.4836 55.0506C26.0012 55.1723 26.5199 55.2859 27.0444 55.3799C28.0876 55.5677 29.1378 55.6338 30.1938 55.6906C31.5404 55.7636 32.8766 55.6593 34.2116 55.5167C34.7512 55.4587 35.2849 55.3567 35.8152 55.2454C36.6165 55.0773 37.4131 54.886 38.1923 54.6367C39.3548 54.2657 40.493 53.8286 41.5861 53.2814C42.2541 52.9475 42.9025 52.5823 43.544 52.1985C44.996 51.3313 46.3183 50.2995 47.5468 49.1424C48.3434 48.3923 49.074 47.5808 49.7641 46.7298C50.4657 45.8638 51.0771 44.9363 51.6607 43.9891C51.964 43.4963 52.235 42.9816 52.4839 42.4575C52.5418 42.3346 52.6009 42.2407 52.763 42.2419C53.6719 42.2477 54.5808 42.2454 55.4897 42.2465C55.5291 42.2465 55.5685 42.2465 55.6102 42.301C55.5731 42.5433 55.4064 42.7497 55.3323 42.9908C55.1644 43.2076 55.059 43.4534 54.9942 43.7178C54.9004 43.8082 54.5773 44.4041 54.5136 44.6035L54.5055 44.6186Z" fill="white"></path>
    <path d="M25.0122 33.9976C24.8246 34.1298 24.8038 34.3315 24.7169 34.4915C24.4575 34.9657 24.2561 35.4712 23.9712 35.9315C23.5289 36.6468 22.913 37.1326 22.1024 37.3876C21.4795 37.5836 20.8496 37.5928 20.2313 37.4688C19.3513 37.2926 18.6809 36.7697 18.1761 36.03C17.9584 35.71 17.801 35.3599 17.6435 35.0098C17.273 34.1831 16.899 33.3577 16.5285 32.531C16.2101 31.8215 15.8963 31.1085 15.5767 30.3989C15.2687 29.7161 14.9538 29.0378 14.6458 28.355C14.4304 27.8796 14.2162 27.402 14.0089 26.9232C13.9244 26.7272 13.9441 26.6971 14.1537 26.6959C14.8056 26.6913 15.4586 26.7017 16.1105 26.689C16.2946 26.6855 16.3617 26.8026 16.4104 26.922C16.5343 27.2234 16.6801 27.5144 16.8133 27.8112C17.1954 28.6645 17.5729 29.5213 17.9561 30.3746C18.4482 31.4702 18.9368 32.5681 19.4405 33.6579C19.6107 34.0243 19.7578 34.4011 19.9569 34.7559C20.1943 35.179 20.5138 35.4283 21.0152 35.4271C21.5281 35.4248 21.9068 35.208 22.1407 34.7547C22.3664 34.3165 22.5783 33.8713 22.796 33.4295C23.0797 32.8556 23.3564 32.2783 23.6505 31.7102C23.7489 31.5212 23.7374 31.3647 23.647 31.1804C22.9627 29.7938 22.2854 28.4037 21.6057 27.0147C21.5837 26.9707 21.5606 26.9255 21.5478 26.8779C21.5119 26.7458 21.542 26.6982 21.6891 26.6971C22.3213 26.6936 22.9535 26.6971 23.5868 26.6936C23.7339 26.6936 23.7918 26.7921 23.8439 26.8988C24.0535 27.3336 24.2584 27.7707 24.4714 28.2031C24.6069 28.4767 24.7632 28.7399 24.8697 29.0286C24.8906 29.0842 24.93 29.1306 25.0145 29.1607C25.1094 28.9752 25.209 28.7874 25.3016 28.5973C25.554 28.0744 25.8018 27.5492 26.0542 27.0263C26.1573 26.813 26.2847 26.6716 26.5695 26.6866C27.1311 26.7145 27.6961 26.6936 28.2588 26.6959C28.48 26.6959 28.5147 26.7388 28.4094 26.9359C28.1535 27.4136 27.952 27.9167 27.6915 28.3932C27.4506 28.8326 27.2526 29.2952 27.0338 29.7474C26.8022 30.225 26.5753 30.7062 26.3333 31.1792C26.2337 31.3728 26.2314 31.5328 26.3391 31.7322C26.5822 32.1821 26.7907 32.6504 27.0188 33.1084C27.3001 33.6742 27.5525 34.2527 27.8617 34.8045C28.2368 35.4747 29.0659 35.5906 29.6054 35.2521C29.8683 35.0874 30.0118 34.8208 30.1276 34.5518C30.5178 33.6475 30.9543 32.7641 31.348 31.8621C31.9154 30.5613 32.5047 29.2709 33.0952 27.9805C33.2631 27.613 33.4275 27.2431 33.5839 26.871C33.6371 26.7435 33.7124 26.6924 33.8513 26.6936C34.5136 26.6994 35.1759 26.6936 35.8371 26.6971C36.0119 26.6971 36.0455 26.7504 35.9714 26.9174C35.7306 27.4565 35.4805 27.9921 35.2385 28.5312C34.9606 29.1515 34.6896 29.7752 34.4106 30.3955C34.2161 30.8268 34.01 31.2522 33.8154 31.6835C33.5364 32.3038 33.2701 32.9298 32.9852 33.5466C32.617 34.3408 32.3033 35.1628 31.8575 35.9187C31.4256 36.6503 30.8061 37.1465 29.9783 37.3981C29.382 37.5789 28.7857 37.5894 28.194 37.4804C27.4043 37.3343 26.7559 36.9192 26.2453 36.2874C25.8806 35.8364 25.6687 35.3042 25.4058 34.7988C25.2704 34.5391 25.1453 34.2747 25.0099 34.0011L25.0122 33.9976Z" fill="white"></path>
    <path d="M6.43554 37.3806C4.42895 37.3806 2.42237 37.3806 0.41578 37.3806C0.356729 37.3806 0.297678 37.3818 0.237468 37.3806C0.014 37.3737 0.00936848 37.3725 0.00821062 37.1406C0.00589488 36.6352 -0.0137889 36.1297 0.0163157 35.6265C0.0626304 34.8636 0.339361 34.1889 0.874296 33.6301C1.36407 33.1188 1.94185 32.7385 2.57752 32.4301C3.30582 32.0765 4.05728 31.7913 4.82494 31.5432C5.42356 31.3484 6.02449 31.1583 6.6208 30.9542C7.3653 30.698 8.11329 30.4499 8.81959 30.0963C9.09284 29.9595 9.35221 29.8007 9.58146 29.5978C9.78525 29.4169 9.93577 29.2013 9.99714 28.9311C10.0388 28.7468 10.018 28.719 9.83967 28.7074C9.78062 28.7039 9.72157 28.7074 9.66136 28.7074C6.62659 28.7074 3.59181 28.7074 0.558198 28.7074C0.51883 28.7074 0.479463 28.7085 0.440095 28.7074C0.217785 28.6993 0.210838 28.697 0.208522 28.4662C0.205048 27.9608 0.20389 27.4564 0.208522 26.9509C0.210838 26.7098 0.227048 26.6959 0.459779 26.6936C0.805982 26.6901 1.15218 26.6936 1.49723 26.6936C5.06578 26.6936 8.63433 26.6936 12.2017 26.6936C12.5607 26.6936 12.5664 26.6936 12.563 27.0449C12.5572 27.5886 12.6 28.1347 12.5363 28.6772C12.4437 29.4633 12.0709 30.1102 11.5186 30.6632C10.9246 31.2592 10.209 31.6684 9.45294 32.0116C8.65401 32.3745 7.82845 32.6666 6.99016 32.9229C6.35912 33.1153 5.72576 33.3031 5.10167 33.5176C4.50653 33.7217 3.91138 33.9315 3.36834 34.2596C3.04993 34.4521 2.77552 34.6851 2.62731 35.0387C2.60878 35.0839 2.58562 35.1291 2.57405 35.1767C2.53584 35.3425 2.57405 35.3935 2.74078 35.4062C2.78941 35.4097 2.8392 35.4062 2.88899 35.4062C6.09165 35.4062 9.29431 35.4062 12.497 35.4062C12.8883 35.4062 12.8617 35.3633 12.8617 35.7749C12.8617 36.2305 12.864 36.6862 12.8617 37.1406C12.8605 37.3737 12.8548 37.376 12.6324 37.3806C12.4947 37.3841 12.3557 37.3806 12.2168 37.3806C10.2889 37.3806 8.36223 37.3806 6.43438 37.3806H6.43554Z" fill="white"></path>
    <path d="M50.6741 37.3482C50.6151 37.4038 50.5317 37.3795 50.4576 37.3795C49.815 37.3818 49.1724 37.376 48.5309 37.3841C48.3538 37.3864 48.2484 37.3377 48.1627 37.165C47.8096 36.4497 47.4275 35.7494 47.0755 35.0329C46.9666 34.8115 46.8277 34.7431 46.5915 34.7442C44.9705 34.7523 43.3495 34.7489 41.7285 34.7477C41.6115 34.7477 41.4934 34.7628 41.3649 34.721C41.3556 34.59 41.4332 34.4915 41.483 34.3941C41.7308 33.9118 42.0017 33.4411 42.2414 32.9553C42.3224 32.7918 42.4197 32.7501 42.5853 32.7513C43.5533 32.7571 44.5224 32.7536 45.4904 32.7536C45.862 32.7536 45.869 32.749 45.7046 32.429C45.3642 31.7623 45.018 31.1003 44.6729 30.4372C44.4448 30.0001 44.2225 29.5607 43.984 29.1306C43.6656 28.5532 42.8562 28.3619 42.3109 28.7329C42.1395 28.8488 41.9994 29.0053 41.901 29.192C41.3614 30.2215 40.8207 31.251 40.2857 32.2829C39.8504 33.1234 39.4278 33.9698 38.9936 34.8103C38.5779 35.6149 38.1506 36.4149 37.7361 37.2206C37.6782 37.3319 37.6145 37.3853 37.4883 37.3841C36.7762 37.3795 36.0653 37.3806 35.3532 37.3795C35.3347 37.3795 35.3173 37.3667 35.2826 37.354C35.2722 37.1685 35.3961 37.027 35.4748 36.8775C35.9634 35.9442 36.437 35.0039 36.9129 34.0648C37.4432 33.0179 37.9909 31.9814 38.5281 30.9392C38.9391 30.1427 39.3363 29.3381 39.7578 28.5474C40.0611 27.9793 40.4397 27.4692 40.9828 27.0959C41.6219 26.6553 42.3386 26.5243 43.0913 26.544C43.6158 26.5579 44.1276 26.6483 44.6046 26.8918C45.1372 27.1631 45.5425 27.5666 45.8701 28.057C46.1446 28.4674 46.3564 28.9138 46.5822 29.352C47.1345 30.4198 47.6753 31.4945 48.238 32.5565C48.7637 33.5501 49.2558 34.561 49.7803 35.5558C50.079 36.1227 50.3743 36.6908 50.6684 37.2589C50.6822 37.2844 50.6973 37.3111 50.673 37.3493L50.6741 37.3482Z" fill="white"></path>
    <path d="M64.0001 26.7318C63.8982 26.9149 63.7593 27.0413 63.6342 27.177C62.5817 28.3224 61.5292 29.4656 60.4744 30.6098C59.7276 31.4214 58.975 32.2283 58.2328 33.0434C58.0348 33.2613 57.8437 33.4874 57.7059 33.7529C57.5855 33.9859 57.5265 34.2317 57.5265 34.4937C57.5265 35.3354 57.5265 36.176 57.5265 37.0177C57.5265 37.0872 57.5265 37.1556 57.5265 37.2252C57.5265 37.3377 57.4674 37.384 57.3586 37.3817C57.2497 37.3794 57.1409 37.3817 57.0321 37.3817C56.5573 37.3817 56.0838 37.3817 55.609 37.3817C55.3883 37.3817 55.2775 37.2666 55.2767 37.0362C55.2767 36.205 55.2652 35.3737 55.2814 34.5424C55.2895 34.132 55.1389 33.7946 54.9201 33.4712C54.6086 33.0109 54.2011 32.6353 53.8317 32.226C53.1474 31.4666 52.4446 30.7246 51.7487 29.9745C51.0054 29.1734 50.262 28.3723 49.521 27.5688C49.2743 27.3022 49.0347 27.0309 48.7961 26.7665C48.8355 26.6738 48.9027 26.6947 48.9582 26.6947C49.7583 26.6912 50.5584 26.6923 51.3585 26.6842C51.5009 26.6831 51.6028 26.7306 51.6943 26.8315C52.455 27.6708 53.2157 28.5091 53.9776 29.3473C54.5392 29.9664 55.0857 30.6006 55.6669 31.2011C56.1336 31.6834 56.6546 31.6892 57.1143 31.2011C57.8634 30.4046 58.5801 29.5792 59.3154 28.7699C59.9105 28.1149 60.5149 27.468 61.1124 26.8141C61.1842 26.7364 61.2536 26.69 61.3636 26.6912C62.2135 26.6958 63.0634 26.6958 63.9121 26.6981C63.9295 26.6981 63.9468 26.712 63.9966 26.7329L64.0001 26.7318Z" fill="white"></path>
  </g>
  <defs>
    <clipPath id="clip0_37_108">
      <rect width="64" height="52.9067" fill="white" transform="translate(0 5.59998)"></rect>
    </clipPath>
  </defs>
</svg>
